<?xml version="1.0" encoding="UTF-8"?>
<svg xmlns="http://www.w3.org/2000/svg" viewBox="0 0 1200 630" role="img" aria-label="Modra">
  <title>Modra</title>

  <defs>
    <linearGradient id="bg" x1="0" y1="0" x2="1" y2="1">
      <stop offset="0" stop-color="#0F1614"/>
      <stop offset="1" stop-color="#102A1A"/>
    </linearGradient>
    <linearGradient id="grad-text" x1="0" y1="0" x2="1" y2="0">
      <stop offset="0" stop-color="#2E9D43"/>
      <stop offset="0.55" stop-color="#7BD389"/>
      <stop offset="1" stop-color="#E63946"/>
    </linearGradient>
    <radialGradient id="glow" cx="0.5" cy="0.5" r="0.5">
      <stop offset="0" stop-color="#2E9D43" stop-opacity="0.35"/>
      <stop offset="1" stop-color="#2E9D43" stop-opacity="0"/>
    </radialGradient>
  </defs>

  <rect width="1200" height="630" fill="url(#bg)"/>
  <circle cx="200" cy="315" r="420" fill="url(#glow)"/>

  <g transform="translate(80, 135) scale(0.3515)">
    <path d="M 180 200 L 60 320 L 60 460 L 180 460 Z" fill="#45B85C"/>
    <path d="M 180 200 L 180 460 L 300 460 L 300 320 Z" fill="#2E9D43"/>
    <path d="M 180 460 L 60 460 L 60 600 L 180 720 Z" fill="#155E2B"/>
    <path d="M 180 460 L 180 720 L 300 600 L 300 460 Z" fill="#0F4A22"/>
    <path d="M 844 200 L 844 460 L 964 460 L 964 320 Z" fill="#45B85C"/>
    <path d="M 844 200 L 724 320 L 724 460 L 844 460 Z" fill="#2E9D43"/>
    <path d="M 844 460 L 844 720 L 964 600 L 964 460 Z" fill="#155E2B"/>
    <path d="M 844 460 L 724 460 L 724 600 L 844 720 Z" fill="#0F4A22"/>
    <path d="M 342 200 L 440 304 L 440 460 L 342 460 Z" fill="#C42028"/>
    <path d="M 342 460 L 440 460 L 440 778 L 342 720 Z" fill="#A11A21"/>
    <path d="M 440 304 L 512 380 L 512 460 L 440 460 Z" fill="#8C151C"/>
    <path d="M 440 460 L 512 460 L 512 820 L 440 778 Z" fill="#6A121A"/>
    <path d="M 682 200 L 584 304 L 584 460 L 682 460 Z" fill="#C42028"/>
    <path d="M 682 460 L 584 460 L 584 778 L 682 720 Z" fill="#A11A21"/>
    <path d="M 584 304 L 512 380 L 512 460 L 584 460 Z" fill="#8C151C"/>
    <path d="M 584 460 L 512 460 L 512 820 L 584 778 Z" fill="#6A121A"/>
    <path d="M 342 200 L 342 296 L 396 268 Z" fill="#E63946"/>
    <path d="M 682 200 L 628 268 L 682 296 Z" fill="#E63946"/>
  </g>

  <text x="490" y="270" font-family="ui-sans-serif, system-ui, -apple-system, 'Segoe UI', Inter, sans-serif"
        font-size="120" font-weight="800" letter-spacing="-4" fill="url(#grad-text)">modra</text>
  <text x="492" y="330" font-family="ui-sans-serif, system-ui, -apple-system, 'Segoe UI', Inter, sans-serif"
        font-size="34" font-weight="500" fill="#E8F0E9">One language. UI. State. API. DB.</text>

  <g font-family="ui-monospace, 'JetBrains Mono', 'Fira Code', monospace" font-size="22">
    <rect x="492" y="370" width="630" height="180" rx="14" fill="#0a1410" stroke="#1f2c25" stroke-width="1"/>
    <text x="512" y="410" fill="#7bd389">Component: Counter</text>
    <text x="512" y="440" fill="#cbd5d1">  Count: 0</text>
    <text x="512" y="470" fill="#cbd5d1">  Action: Bump <tspan fill="#7bd389">-&gt;</tspan> Count <tspan fill="#e63946">&lt;-</tspan> Count + 1</text>
    <text x="512" y="500" fill="#cbd5d1">  Button label:<tspan fill="#fbbf24">"+"</tspan> Click<tspan fill="#7bd389">-&gt;</tspan>Bump</text>
    <text x="512" y="530" fill="#cbd5d1">  Text<tspan fill="#7bd389">:</tspan> Count</text>
  </g>

  <text x="492" y="595" font-family="ui-monospace, monospace" font-size="20" letter-spacing="6" fill="#5a6c5e">DECLARATIVE / REACTIVE / FULL-STACK</text>
</svg>
